<svg width="20" height="20" viewBox="0 0 20 20" fill="none" xmlns="http://www.w3.org/2000/svg">
<path fill-rule="evenodd" clip-rule="evenodd" d="M9.61154 0C4.30323 0 0 4.20819 0 9.39926C0 14.5903 4.30323 18.7985 9.61154 18.7985C11.8817 18.7985 13.968 18.0289 15.6125 16.7419L18.7366 19.789L18.8197 19.8589C19.1097 20.0688 19.5209 20.045 19.7834 19.7876C20.0721 19.5046 20.0715 19.0462 19.782 18.7639L16.6948 15.7527C18.2648 14.0797 19.2231 11.8489 19.2231 9.39926C19.2231 4.20819 14.9198 0 9.61154 0ZM9.61157 1.44727C14.1023 1.44727 17.7427 5.00728 17.7427 9.39879C17.7427 13.7903 14.1023 17.3503 9.61157 17.3503C5.12089 17.3503 1.48047 13.7903 1.48047 9.39879C1.48047 5.00728 5.12089 1.44727 9.61157 1.44727Z" fill="#C4C4C4"/>
</svg>
