<svg width="19" height="19" viewBox="0 0 19 19" fill="none" xmlns="http://www.w3.org/2000/svg">
<path d="M13.8438 5.34375C13.8438 7.74166 11.8979 9.6875 9.5 9.6875C7.10209 9.6875 5.15625 7.74166 5.15625 5.34375C5.15625 2.94584 7.10209 1 9.5 1C11.8979 1 13.8438 2.94584 13.8438 5.34375ZM9.5 13.4688C10.5346 13.4688 11.5207 13.2544 12.4159 12.875H14.25C16.3213 12.875 18 14.5537 18 16.625V17.2188C18 17.6499 17.6499 18 17.2188 18H1.78125C1.35014 18 1 17.6499 1 17.2188V16.625C1 14.5537 2.67865 12.875 4.75 12.875H6.58476C7.48133 13.2539 8.46415 13.4688 9.5 13.4688Z" stroke="#C4C4C4" stroke-width="2"/>
</svg>
